<svg width="47" height="47" viewBox="0 0 47 47" fill="none" xmlns="http://www.w3.org/2000/svg">
<path d="M25.85 4.86215V0H21.15V4.86215C12.6641 5.9267 5.9267 12.6641 4.86215 21.15H0V25.85H4.86215C5.9267 34.3358 12.6618 41.0733 21.15 42.1378V47H25.85V42.1378C34.3358 41.0733 41.0733 34.3382 42.1378 25.85H47V21.15H42.1378C41.0733 12.6641 34.3358 5.9267 25.85 4.86215ZM23.5 37.6C15.7239 37.6 9.4 31.2761 9.4 23.5C9.4 15.7239 15.7239 9.4 23.5 9.4C31.2761 9.4 37.6 15.7239 37.6 23.5C37.6 31.2761 31.2761 37.6 23.5 37.6Z" fill="#00017D"/>
<path d="M24.9056 23.5001C25.4882 23.5001 25.9605 23.0278 25.9605 22.4451C25.9605 21.8625 25.4882 21.3901 24.9056 21.3901C24.3229 21.3901 23.8506 21.8625 23.8506 22.4451C23.8506 23.0278 24.3229 23.5001 24.9056 23.5001Z" fill="#00017D"/>
<path d="M21.39 27.0166C22.1669 27.0166 22.7967 26.3869 22.7967 25.61C22.7967 24.8331 22.1669 24.2034 21.39 24.2034C20.6132 24.2034 19.9834 24.8331 19.9834 25.61C19.9834 26.3869 20.6132 27.0166 21.39 27.0166Z" fill="#00017D"/>
<path d="M26.1369 27.0166C26.4282 27.0166 26.6644 26.7805 26.6644 26.4892C26.6644 26.1978 26.4282 25.9617 26.1369 25.9617C25.8455 25.9617 25.6094 26.1978 25.6094 26.4892C25.6094 26.7805 25.8455 27.0166 26.1369 27.0166Z" fill="#00017D"/>
<path d="M19.9835 20.687C20.1777 20.687 20.3352 20.5295 20.3352 20.3353C20.3352 20.1411 20.1777 19.9836 19.9835 19.9836C19.7893 19.9836 19.6318 20.1411 19.6318 20.3353C19.6318 20.5295 19.7893 20.687 19.9835 20.687Z" fill="#00017D"/>
<path d="M27.0157 20.3352C27.2099 20.3352 27.3674 20.1777 27.3674 19.9835C27.3674 19.7893 27.2099 19.6318 27.0157 19.6318C26.8215 19.6318 26.6641 19.7893 26.6641 19.9835C26.6641 20.1777 26.8215 20.3352 27.0157 20.3352Z" fill="#00017D"/>
<path d="M33.1529 21.3902C32.719 21.3958 32.3061 21.605 32.0452 21.9528C31.6489 22.4814 31.018 22.7968 30.3572 22.7968C29.7126 22.7968 29.0881 22.6076 28.5515 22.25L28.2279 22.0344L28.6179 21.4492L28.9414 21.6648C29.2695 21.8835 29.6398 22.0189 30.0267 22.0692C29.8231 21.1394 29.4193 20.2554 28.8451 19.4912C28.7399 19.3512 28.754 19.155 28.8778 19.0312L29.5593 18.3497C29.8667 18.0424 30.2749 17.8736 30.7089 17.8736C30.955 17.8736 31.1864 17.7779 31.3609 17.6035L31.5866 17.3777C31.5659 16.8618 31.3552 16.3794 30.9881 16.0122C30.621 15.6451 30.1385 15.4341 29.6226 15.4137L29.3968 15.6395C29.2221 15.8136 29.1264 16.0449 29.1264 16.2911C29.1264 16.7251 28.9576 17.1333 28.6503 17.4403L27.9688 18.1218C27.845 18.2456 27.6494 18.2597 27.5088 18.1545C26.7446 17.5803 25.8606 17.1769 24.9308 16.973C24.9811 17.3598 25.1164 17.7301 25.3352 18.0582L25.5507 18.3817L24.9656 18.7717L24.75 18.4482C24.3924 17.9119 24.2032 17.2874 24.2032 16.6428C24.2032 15.9823 24.5186 15.3515 25.0472 14.9548C25.395 14.6939 25.6042 14.281 25.6098 13.8471C25.0141 13.4898 24.3365 13.302 23.6388 13.302H23.361C22.6633 13.302 21.9856 13.4898 21.3899 13.8471C21.3955 14.281 21.6048 14.6939 21.9526 14.9548C22.4811 15.3511 22.7966 15.982 22.7966 16.6428C22.7966 17.2874 22.6074 17.9119 22.2497 18.4485L22.0342 18.7721L21.449 18.3821L21.6646 18.0585C21.8833 17.7304 22.0187 17.3601 22.069 16.9733C21.1392 17.1769 20.2551 17.5806 19.491 18.1549C19.351 18.26 19.1544 18.246 19.031 18.1222L18.3495 17.4407C18.0421 17.1333 17.8733 16.7251 17.8733 16.2911C17.8733 16.0449 17.7777 15.8136 17.6033 15.6391L17.3775 15.4137C16.8616 15.4345 16.3791 15.6451 16.012 16.0122C15.6449 16.3794 15.4339 16.8618 15.4135 17.3777L15.6392 17.6035C15.8133 17.7779 16.0447 17.8736 16.2909 17.8736C16.7248 17.8736 17.1331 18.0424 17.4401 18.3497L18.1216 19.0312C18.2454 19.155 18.2594 19.3512 18.1543 19.4912C17.58 20.2554 17.1767 21.1394 16.9727 22.0692C17.3596 22.0189 17.7298 21.8835 18.0579 21.6648L18.3815 21.4492L18.7715 22.0344L18.4479 22.25C17.9117 22.6076 17.2871 22.7968 16.6425 22.7968C15.9821 22.7968 15.3512 22.4814 14.9546 21.9528C14.6936 21.605 14.2808 21.3958 13.8468 21.3902C13.4895 21.9859 13.3018 22.6635 13.3018 23.3612V23.639C13.3018 24.3367 13.4895 25.0144 13.8468 25.6101C14.2808 25.6044 14.6936 25.3952 14.9546 25.0474C15.3509 24.5189 15.9818 24.2034 16.6425 24.2034C17.2871 24.2034 17.9117 24.3926 18.4483 24.7503L18.7718 24.9658L18.3818 25.551L18.0583 25.3354C17.7302 25.1167 17.3599 24.9813 16.9731 24.931C17.1767 25.8608 17.5804 26.7449 18.1547 27.509C18.2598 27.649 18.2457 27.8452 18.1219 27.969L17.4404 28.6505C17.1331 28.9579 16.7248 29.1267 16.2909 29.1267C16.0447 29.1267 15.8133 29.2223 15.6389 29.3967L15.4135 29.6225C15.4342 30.1384 15.6449 30.6209 16.012 30.988C16.3791 31.3551 16.8616 31.5661 17.3775 31.5865L17.6033 31.3608C17.7777 31.1867 17.8733 30.9553 17.8733 30.7091C17.8733 30.2752 18.0421 29.8669 18.3495 29.5599L19.031 28.8784C19.1544 28.7546 19.3503 28.7405 19.491 28.8457C20.2551 29.4199 21.1392 29.8233 22.069 30.0273C22.0187 29.6404 21.8833 29.2701 21.6646 28.942L21.449 28.6185L22.0342 28.2285L22.2497 28.5521C22.6074 29.0883 22.7966 29.7129 22.7966 30.3575C22.7966 31.0179 22.4811 31.6488 21.9526 32.0454C21.6048 32.3064 21.3955 32.7192 21.3899 33.1532C21.9853 33.5104 22.6629 33.6982 23.361 33.6982H23.6388C24.3365 33.6982 25.0141 33.5104 25.6095 33.1532C25.6038 32.7192 25.3946 32.3064 25.0468 32.0454C24.5183 31.6491 24.2028 31.0182 24.2028 30.3575C24.2028 29.7129 24.392 29.0883 24.7497 28.5517L24.9652 28.2282L25.5504 28.6182L25.3348 28.9417C25.1161 29.2698 24.9807 29.6401 24.9304 30.0269C25.8602 29.8233 26.7443 29.4196 27.5084 28.8453C27.6484 28.7402 27.8446 28.7543 27.9684 28.878L28.6499 29.5596C28.9576 29.8669 29.1264 30.2752 29.1264 30.7091C29.1264 30.9553 29.2221 31.1867 29.3965 31.3611L29.6223 31.5869C30.1381 31.5661 30.6206 31.3555 30.9877 30.9883C31.3549 30.6212 31.5659 30.1387 31.5863 29.6229L31.3605 29.3971C31.1864 29.2223 30.955 29.1267 30.7089 29.1267C30.2749 29.1267 29.8667 28.9579 29.5597 28.6505L28.8781 27.969C28.7544 27.8452 28.7403 27.649 28.8454 27.509C29.4197 26.7449 29.8231 25.8608 30.027 24.931C29.6402 24.9813 29.2699 25.1167 28.9418 25.3354L28.6183 25.551L28.2283 24.9658L28.5518 24.7503C29.0881 24.3926 29.7126 24.2034 30.3572 24.2034C31.0176 24.2034 31.6485 24.5189 32.0452 25.0474C32.3061 25.3952 32.719 25.6044 33.1529 25.6101C33.5102 25.0147 33.698 24.3371 33.698 23.639V23.3612C33.698 22.6635 33.5102 21.9859 33.1529 21.3902V21.3902ZM18.9283 20.3352C18.9283 19.7535 19.4016 19.2802 19.9833 19.2802C20.5649 19.2802 21.0383 19.7535 21.0383 20.3352C21.0383 20.9168 20.5649 21.3902 19.9833 21.3902C19.4016 21.3902 18.9283 20.9168 18.9283 20.3352ZM21.3899 27.72C20.2263 27.72 19.28 26.7737 19.28 25.6101C19.28 24.4464 20.2263 23.5001 21.3899 23.5001C22.5536 23.5001 23.4999 24.4464 23.4999 25.6101C23.4999 26.7737 22.5536 27.72 21.3899 27.72ZM23.1482 22.4451C23.1482 21.4756 23.937 20.6868 24.9065 20.6868C25.876 20.6868 26.6648 21.4756 26.6648 22.4451C26.6648 23.4147 25.876 24.2034 24.9065 24.2034C23.937 24.2034 23.1482 23.4147 23.1482 22.4451ZM26.1373 27.72C25.4586 27.72 24.9065 27.1679 24.9065 26.4892C24.9065 25.8105 25.4586 25.2584 26.1373 25.2584C26.816 25.2584 27.3681 25.8105 27.3681 26.4892C27.3681 27.1679 26.816 27.72 26.1373 27.72ZM27.0165 21.0385C26.4348 21.0385 25.9615 20.5652 25.9615 19.9835C25.9615 19.4019 26.4348 18.9285 27.0165 18.9285C27.5981 18.9285 28.0714 19.4019 28.0714 19.9835C28.0714 20.5652 27.5981 21.0385 27.0165 21.0385Z" fill="#00017D"/>
</svg>
