<?xml version="1.0" encoding="utf-8"?>
<!-- Generator: Adobe Illustrator 18.0.0, SVG Export Plug-In . SVG Version: 6.00 Build 0)  -->
<!DOCTYPE svg PUBLIC "-//W3C//DTD SVG 1.1//EN" "http://www.w3.org/Graphics/SVG/1.1/DTD/svg11.dtd">
<svg version="1.1" id="Layer_1" xmlns="http://www.w3.org/2000/svg" xmlns:xlink="http://www.w3.org/1999/xlink" x="0px" y="0px"
	 viewBox="0 0 160 30" style="enable-background:new 0 0 160 30;" xml:space="preserve">
<style type="text/css">
	.st0{fill:#0173B2;}
	.st1{fill:#FFFFFF;}
	.st2{display:none;}
	.st3{display:inline;}
	.st4{fill:#517FA4;}
	.st5{display:inline;fill:#517FA4;}
	.st6{display:inline;fill:#FFFFFF;}
</style>
<g>
	<rect class="st0" width="30" height="30"/>
	<g>
		<path class="st0" d="M158,2v26H32V2H158 M160,0H30v30h130V0L160,0z"/>
	</g>
	<g>
		<rect x="5" y="10.9" class="st1" width="4.3" height="14.1"/>
		<ellipse class="st1" cx="7.1" cy="7.2" rx="2.1" ry="2.2"/>
		<path class="st1" d="M25,17.5c0-3.7-0.8-6.5-4.9-6.5c-2,0-3.4,1.1-3.9,2.2h-0.1v-1.9h-4V25h4.1v-6.8c0-1.8,0.3-3.5,2.5-3.5
			c2.1,0,2.1,2,2.1,3.6V25H25V17.5z"/>
	</g>
	<g>
		<path class="st0" d="M38,18.3c0.5,0.3,1.2,0.5,1.9,0.5c1.1,0,1.7-0.6,1.7-1.4c0-0.8-0.4-1.2-1.5-1.6c-1.3-0.5-2.1-1.2-2.1-2.3
			c0-1.3,1-2.2,2.6-2.2c0.8,0,1.4,0.2,1.8,0.4L42,12.6c-0.3-0.1-0.8-0.4-1.5-0.4c-1.1,0-1.5,0.7-1.5,1.2c0,0.8,0.5,1.1,1.6,1.6
			c1.4,0.5,2.1,1.2,2.1,2.4c0,1.2-0.9,2.3-2.8,2.3c-0.8,0-1.6-0.2-2.1-0.5L38,18.3z"/>
		<path class="st0" d="M45.2,12.1c0,0.4-0.3,0.6-0.7,0.6c-0.4,0-0.6-0.3-0.6-0.6c0-0.4,0.3-0.7,0.7-0.7C45,11.4,45.2,11.7,45.2,12.1
			z M44,19.5v-5.8h1.1v5.8H44z"/>
		<path class="st0" d="M51.9,13.7c0,0.4,0,0.9,0,1.6v3.4c0,1.3-0.3,2.1-0.8,2.7c-0.6,0.5-1.4,0.7-2.1,0.7c-0.7,0-1.5-0.2-1.9-0.5
			l0.3-0.8c0.4,0.2,1,0.5,1.7,0.5c1.1,0,1.9-0.6,1.9-2v-0.6h0c-0.3,0.5-0.9,1-1.8,1c-1.4,0-2.5-1.2-2.5-2.8c0-2,1.3-3.1,2.6-3.1
			c1,0,1.6,0.5,1.8,1h0l0-0.9H51.9z M50.8,16c0-0.2,0-0.3-0.1-0.5c-0.2-0.6-0.7-1.1-1.5-1.1c-1,0-1.7,0.9-1.7,2.2
			c0,1.1,0.6,2.1,1.7,2.1c0.6,0,1.2-0.4,1.5-1.1c0.1-0.2,0.1-0.4,0.1-0.6V16z"/>
		<path class="st0" d="M53.5,15.3c0-0.6,0-1.1,0-1.6h0.9l0.1,1h0c0.3-0.6,1-1.1,1.9-1.1c0.8,0,2.1,0.5,2.1,2.5v3.5h-1.1v-3.3
			c0-0.9-0.3-1.7-1.3-1.7c-0.7,0-1.2,0.5-1.4,1.1c0,0.1-0.1,0.3-0.1,0.5v3.5h-1.1V15.3z"/>
		<path class="st0" d="M63.9,12.1c0,0.4-0.3,0.6-0.7,0.6c-0.4,0-0.6-0.3-0.6-0.6c0-0.4,0.3-0.7,0.7-0.7
			C63.6,11.4,63.9,11.7,63.9,12.1z M62.7,19.5v-5.8h1.1v5.8H62.7z"/>
		<path class="st0" d="M65.5,15.3c0-0.6,0-1.1,0-1.6h0.9l0.1,1h0c0.3-0.6,1-1.1,1.9-1.1c0.8,0,2.1,0.5,2.1,2.5v3.5h-1.1v-3.3
			c0-0.9-0.3-1.7-1.3-1.7c-0.7,0-1.2,0.5-1.4,1.1c0,0.1-0.1,0.3-0.1,0.5v3.5h-1.1V15.3z"/>
		<path class="st0" d="M75.1,13.7l0.8,3c0.2,0.6,0.3,1.2,0.4,1.8h0c0.1-0.6,0.3-1.2,0.5-1.8l0.9-3h0.9l0.9,2.9
			c0.2,0.7,0.4,1.3,0.5,1.9h0c0.1-0.6,0.3-1.2,0.4-1.9l0.8-2.9h1l-1.9,5.8h-1l-0.9-2.8c-0.2-0.6-0.4-1.2-0.5-1.9h0
			c-0.1,0.7-0.3,1.3-0.5,1.9l-0.9,2.8h-1L74,13.7H75.1z"/>
		<path class="st0" d="M84.7,12.1c0,0.4-0.3,0.6-0.7,0.6c-0.4,0-0.6-0.3-0.6-0.6c0-0.4,0.3-0.7,0.7-0.7
			C84.5,11.4,84.7,11.7,84.7,12.1z M83.5,19.5v-5.8h1.1v5.8H83.5z"/>
		<path class="st0" d="M87.6,12.1v1.7h1.5v0.8h-1.5v3.1c0,0.7,0.2,1.1,0.8,1.1c0.3,0,0.5,0,0.6-0.1l0,0.8c-0.2,0.1-0.5,0.1-0.9,0.1
			c-0.5,0-0.9-0.2-1.1-0.4c-0.3-0.3-0.4-0.8-0.4-1.5v-3.2h-0.9v-0.8h0.9v-1.4L87.6,12.1z"/>
		<path class="st0" d="M90.3,11h1.1v3.6h0c0.2-0.3,0.4-0.6,0.8-0.7c0.3-0.2,0.7-0.3,1.1-0.3c0.8,0,2,0.5,2,2.5v3.5h-1.1v-3.3
			c0-0.9-0.3-1.7-1.3-1.7c-0.7,0-1.2,0.5-1.4,1.1c-0.1,0.1-0.1,0.3-0.1,0.5v3.5h-1.1V11z"/>
		<path class="st0" d="M99.6,11.4h1v7.2h3.5v0.9h-4.5V11.4z"/>
		<path class="st0" d="M106.4,12.1c0,0.4-0.3,0.6-0.7,0.6c-0.4,0-0.6-0.3-0.6-0.6c0-0.4,0.3-0.7,0.7-0.7
			C106.1,11.4,106.4,11.7,106.4,12.1z M105.2,19.5v-5.8h1.1v5.8H105.2z"/>
		<path class="st0" d="M108,15.3c0-0.6,0-1.1,0-1.6h0.9l0.1,1h0c0.3-0.6,1-1.1,1.9-1.1c0.8,0,2.1,0.5,2.1,2.5v3.5h-1.1v-3.3
			c0-0.9-0.3-1.7-1.3-1.7c-0.7,0-1.2,0.5-1.4,1.1c0,0.1-0.1,0.3-0.1,0.5v3.5H108V15.3z"/>
		<path class="st0" d="M115.7,16.4L115.7,16.4c0.2-0.2,0.4-0.5,0.5-0.7l1.7-2h1.3l-2.2,2.4l2.6,3.4h-1.3l-2-2.8l-0.5,0.6v2.2h-1V11
			h1V16.4z"/>
		<path class="st0" d="M120.9,16.8c0,1.4,0.9,2,2,2c0.8,0,1.2-0.1,1.6-0.3l0.2,0.8c-0.4,0.2-1,0.4-1.9,0.4c-1.8,0-2.9-1.2-2.9-2.9
			s1-3.1,2.7-3.1c1.9,0,2.4,1.7,2.4,2.7c0,0.2,0,0.4,0,0.5H120.9z M124,16.1c0-0.7-0.3-1.7-1.5-1.7c-1.1,0-1.5,1-1.6,1.7H124z"/>
		<path class="st0" d="M131.3,11v7c0,0.5,0,1.1,0,1.5h-0.9l0-1h0c-0.3,0.6-1,1.1-2,1.1c-1.4,0-2.5-1.2-2.5-3c0-1.9,1.2-3.1,2.6-3.1
			c0.9,0,1.5,0.4,1.8,0.9h0V11H131.3z M130.2,16.1c0-0.1,0-0.3,0-0.4c-0.2-0.7-0.7-1.2-1.5-1.2c-1.1,0-1.7,1-1.7,2.2
			c0,1.2,0.6,2.1,1.7,2.1c0.7,0,1.4-0.5,1.5-1.3c0-0.1,0-0.3,0-0.5V16.1z"/>
		<path class="st0" d="M134.1,11.4v8.1h-1v-8.1H134.1z"/>
		<path class="st0" d="M136,15.3c0-0.6,0-1.1,0-1.6h0.9l0.1,1h0c0.3-0.6,1-1.1,1.9-1.1c0.8,0,2.1,0.5,2.1,2.5v3.5h-1.1v-3.3
			c0-0.9-0.3-1.7-1.3-1.7c-0.7,0-1.2,0.5-1.4,1.1c0,0.1-0.1,0.3-0.1,0.5v3.5H136V15.3z"/>
	</g>
</g>
<g class="st2">
	<g class="st3">
		<path class="st4" d="M38,18.3c0.5,0.3,1.2,0.5,1.9,0.5c1.1,0,1.7-0.6,1.7-1.4c0-0.8-0.4-1.2-1.5-1.6c-1.3-0.5-2.1-1.2-2.1-2.3
			c0-1.3,1-2.2,2.6-2.2c0.8,0,1.4,0.2,1.8,0.4l-0.3,0.9c-0.3-0.1-0.8-0.4-1.5-0.4c-1.1,0-1.5,0.7-1.5,1.2c0,0.8,0.5,1.1,1.6,1.6
			c1.4,0.5,2.1,1.2,2.1,2.4c0,1.2-0.9,2.3-2.8,2.3c-0.8,0-1.6-0.2-2.1-0.5L38,18.3z"/>
		<path class="st4" d="M45.2,12.1c0,0.4-0.3,0.6-0.7,0.6c-0.4,0-0.6-0.3-0.6-0.6c0-0.4,0.3-0.7,0.7-0.7C45,11.4,45.2,11.7,45.2,12.1
			z M44.1,19.5v-5.8h1.1v5.8H44.1z"/>
		<path class="st4" d="M51.9,13.7c0,0.4,0,0.9,0,1.6v3.4c0,1.3-0.3,2.1-0.8,2.7c-0.6,0.5-1.4,0.7-2.1,0.7c-0.7,0-1.5-0.2-1.9-0.5
			l0.3-0.8c0.4,0.2,1,0.5,1.7,0.5c1.1,0,1.9-0.6,1.9-2v-0.6h0c-0.3,0.5-0.9,1-1.8,1c-1.4,0-2.5-1.2-2.5-2.8c0-2,1.3-3.1,2.6-3.1
			c1,0,1.6,0.5,1.8,1h0l0-0.9H51.9z M50.8,16c0-0.2,0-0.3-0.1-0.5c-0.2-0.6-0.7-1.1-1.5-1.1c-1,0-1.7,0.9-1.7,2.2
			c0,1.1,0.6,2.1,1.7,2.1c0.6,0,1.2-0.4,1.5-1.1c0.1-0.2,0.1-0.4,0.1-0.6V16z"/>
		<path class="st4" d="M53.5,15.3c0-0.6,0-1.1,0-1.6h0.9l0.1,1h0c0.3-0.6,1-1.1,1.9-1.1c0.8,0,2.1,0.5,2.1,2.5v3.5h-1.1v-3.3
			c0-0.9-0.3-1.7-1.3-1.7c-0.7,0-1.2,0.5-1.4,1.1c0,0.1-0.1,0.3-0.1,0.5v3.5h-1.1V15.3z"/>
		<path class="st4" d="M63.9,12.1c0,0.4-0.3,0.6-0.7,0.6c-0.4,0-0.6-0.3-0.6-0.6c0-0.4,0.3-0.7,0.7-0.7
			C63.6,11.4,63.9,11.7,63.9,12.1z M62.7,19.5v-5.8h1.1v5.8H62.7z"/>
		<path class="st4" d="M65.5,15.3c0-0.6,0-1.1,0-1.6h0.9l0.1,1h0c0.3-0.6,1-1.1,1.9-1.1c0.8,0,2.1,0.5,2.1,2.5v3.5h-1.1v-3.3
			c0-0.9-0.3-1.7-1.3-1.7c-0.7,0-1.2,0.5-1.4,1.1c0,0.1-0.1,0.3-0.1,0.5v3.5h-1.1V15.3z"/>
		<path class="st4" d="M75.2,13.7l0.8,3c0.2,0.6,0.3,1.2,0.4,1.8h0c0.1-0.6,0.3-1.2,0.5-1.8l0.9-3h0.9l0.9,2.9
			c0.2,0.7,0.4,1.3,0.5,1.9h0c0.1-0.6,0.3-1.2,0.4-1.9l0.8-2.9h1l-1.9,5.8h-1l-0.9-2.8c-0.2-0.6-0.4-1.2-0.5-1.9h0
			c-0.1,0.7-0.3,1.3-0.5,1.9l-0.9,2.8h-1l-1.8-5.8H75.2z"/>
		<path class="st4" d="M84.7,12.1c0,0.4-0.3,0.6-0.7,0.6c-0.4,0-0.6-0.3-0.6-0.6c0-0.4,0.3-0.7,0.7-0.7
			C84.5,11.4,84.7,11.7,84.7,12.1z M83.6,19.5v-5.8h1.1v5.8H83.6z"/>
		<path class="st4" d="M87.6,12.1v1.7h1.5v0.8h-1.5v3.1c0,0.7,0.2,1.1,0.8,1.1c0.3,0,0.5,0,0.6-0.1l0,0.8c-0.2,0.1-0.5,0.1-0.9,0.1
			c-0.5,0-0.9-0.2-1.1-0.4c-0.3-0.3-0.4-0.8-0.4-1.5v-3.2h-0.9v-0.8h0.9v-1.4L87.6,12.1z"/>
		<path class="st4" d="M90.3,11h1.1v3.6h0c0.2-0.3,0.4-0.6,0.8-0.7c0.3-0.2,0.7-0.3,1.1-0.3c0.8,0,2,0.5,2,2.5v3.5h-1.1v-3.3
			c0-0.9-0.3-1.7-1.3-1.7c-0.7,0-1.2,0.5-1.4,1.1c-0.1,0.1-0.1,0.3-0.1,0.5v3.5h-1.1V11z"/>
		<path class="st4" d="M100.6,11.4v8.1h-1v-8.1H100.6z"/>
		<path class="st4" d="M102.5,15.3c0-0.6,0-1.1,0-1.6h0.9l0.1,1h0c0.3-0.6,1-1.1,1.9-1.1c0.8,0,2.1,0.5,2.1,2.5v3.5h-1.1v-3.3
			c0-0.9-0.3-1.7-1.3-1.7c-0.7,0-1.2,0.5-1.4,1.1c0,0.1-0.1,0.3-0.1,0.5v3.5h-1.1V15.3z"/>
		<path class="st4" d="M109.1,18.4c0.3,0.2,0.9,0.4,1.4,0.4c0.8,0,1.1-0.4,1.1-0.9c0-0.5-0.3-0.8-1.1-1.1c-1-0.4-1.5-0.9-1.5-1.6
			c0-0.9,0.8-1.7,2-1.7c0.6,0,1.1,0.2,1.4,0.4l-0.3,0.8c-0.2-0.1-0.6-0.3-1.2-0.3c-0.6,0-1,0.4-1,0.8c0,0.5,0.3,0.7,1.1,1
			c1,0.4,1.5,0.9,1.5,1.8c0,1-0.8,1.7-2.2,1.7c-0.6,0-1.2-0.2-1.6-0.4L109.1,18.4z"/>
		<path class="st4" d="M115.2,12.1v1.7h1.5v0.8h-1.5v3.1c0,0.7,0.2,1.1,0.8,1.1c0.3,0,0.5,0,0.6-0.1l0,0.8c-0.2,0.1-0.5,0.1-0.9,0.1
			c-0.5,0-0.9-0.2-1.1-0.4c-0.3-0.3-0.4-0.8-0.4-1.5v-3.2h-0.9v-0.8h0.9v-1.4L115.2,12.1z"/>
		<path class="st4" d="M121.1,19.5l-0.1-0.7h0c-0.3,0.5-0.9,0.9-1.8,0.9c-1.2,0-1.8-0.8-1.8-1.7c0-1.4,1.2-2.2,3.5-2.2v-0.1
			c0-0.5-0.1-1.3-1.3-1.3c-0.5,0-1.1,0.2-1.5,0.4l-0.2-0.7c0.5-0.3,1.2-0.5,1.9-0.5c1.8,0,2.2,1.2,2.2,2.4v2.2c0,0.5,0,1,0.1,1.4
			H121.1z M121,16.6c-1.2,0-2.5,0.2-2.5,1.3c0,0.7,0.5,1,1,1c0.8,0,1.2-0.5,1.4-1c0-0.1,0.1-0.2,0.1-0.3V16.6z"/>
		<path class="st4" d="M128.7,13.7c0,0.4,0,0.9,0,1.6v3.4c0,1.3-0.3,2.1-0.8,2.7c-0.6,0.5-1.4,0.7-2.1,0.7c-0.7,0-1.5-0.2-1.9-0.5
			l0.3-0.8c0.4,0.2,1,0.5,1.7,0.5c1.1,0,1.9-0.6,1.9-2v-0.6h0c-0.3,0.5-0.9,1-1.8,1c-1.4,0-2.5-1.2-2.5-2.8c0-2,1.3-3.1,2.6-3.1
			c1,0,1.6,0.5,1.8,1h0l0-0.9H128.7z M127.6,16c0-0.2,0-0.3-0.1-0.5c-0.2-0.6-0.7-1.1-1.5-1.1c-1,0-1.7,0.9-1.7,2.2
			c0,1.1,0.6,2.1,1.7,2.1c0.6,0,1.2-0.4,1.5-1.1c0.1-0.2,0.1-0.4,0.1-0.6V16z"/>
		<path class="st4" d="M130.3,15.5c0-0.7,0-1.3,0-1.8h0.9l0,1.1h0c0.3-0.8,0.9-1.3,1.6-1.3c0.1,0,0.2,0,0.3,0v1c-0.1,0-0.2,0-0.4,0
			c-0.7,0-1.3,0.6-1.4,1.4c0,0.1,0,0.3,0,0.5v3.1h-1V15.5z"/>
		<path class="st4" d="M137.4,19.5l-0.1-0.7h0c-0.3,0.5-0.9,0.9-1.8,0.9c-1.2,0-1.8-0.8-1.8-1.7c0-1.4,1.2-2.2,3.5-2.2v-0.1
			c0-0.5-0.1-1.3-1.3-1.3c-0.5,0-1.1,0.2-1.5,0.4l-0.2-0.7c0.5-0.3,1.2-0.5,1.9-0.5c1.8,0,2.2,1.2,2.2,2.4v2.2c0,0.5,0,1,0.1,1.4
			H137.4z M137.3,16.6c-1.2,0-2.5,0.2-2.5,1.3c0,0.7,0.5,1,1,1c0.8,0,1.2-0.5,1.4-1c0-0.1,0.1-0.2,0.1-0.3V16.6z"/>
		<path class="st4" d="M140,15.3c0-0.6,0-1.1,0-1.6h0.9l0,0.9h0c0.3-0.6,0.9-1.1,1.8-1.1c0.8,0,1.4,0.5,1.6,1.2h0
			c0.2-0.3,0.4-0.6,0.6-0.8c0.3-0.3,0.7-0.4,1.3-0.4c0.8,0,1.9,0.5,1.9,2.5v3.4h-1v-3.3c0-1.1-0.4-1.8-1.3-1.8c-0.6,0-1.1,0.4-1.2,1
			c0,0.1-0.1,0.3-0.1,0.5v3.6h-1v-3.5c0-0.9-0.4-1.6-1.2-1.6c-0.7,0-1.1,0.5-1.3,1.1c-0.1,0.2-0.1,0.3-0.1,0.5v3.5h-1V15.3z"/>
	</g>
	<rect class="st5" width="30" height="30"/>
	<g class="st3">
		<path class="st4" d="M158,2v26H32V2H158 M160,0H30v30h130V0L160,0z"/>
	</g>
	<path class="st6" d="M21.1,5H8.9C6.7,5,5,6.7,5,8.9v4.1v8.2C5,23.3,6.7,25,8.9,25h12.3c2.1,0,3.9-1.7,3.9-3.9v-8.2V8.9
		C25,6.7,23.3,5,21.1,5z M22.2,7.3l0.4,0v0.4v2.9l-3.4,0l0-3.4L22.2,7.3z M12.1,12.9c0.6-0.9,1.7-1.5,2.9-1.5c1.2,0,2.2,0.6,2.9,1.5
		c0.4,0.6,0.7,1.3,0.7,2.1c0,1.9-1.6,3.5-3.5,3.5c-1.9,0-3.5-1.6-3.5-3.5C11.5,14.2,11.7,13.5,12.1,12.9z M23.1,21.1
		c0,1.1-0.9,1.9-1.9,1.9H8.9c-1.1,0-1.9-0.9-1.9-1.9v-8.2h3c-0.3,0.6-0.4,1.3-0.4,2.1c0,3,2.5,5.5,5.5,5.5c3,0,5.5-2.5,5.5-5.5
		c0-0.7-0.1-1.4-0.4-2.1h3V21.1z"/>
</g>
</svg>
