<svg width="253" height="47" viewBox="0 0 253 47" fill="none" xmlns="http://www.w3.org/2000/svg">
<path d="M81.6262 16.6005H76.015V12.7671H91.5707V16.6005H85.9596V32.434H81.6262V16.6005ZM89.651 25.6839C89.651 24.6098 89.8454 23.6376 90.2343 22.7672C90.6232 21.8968 91.151 21.1561 91.8177 20.5449C92.5029 19.9153 93.2992 19.4338 94.2066 19.1005C95.1325 18.7672 96.114 18.6005 97.1511 18.6005C98.1881 18.6005 99.1604 18.7672 100.068 19.1005C100.994 19.4338 101.79 19.9153 102.457 20.5449C103.142 21.1561 103.679 21.8968 104.068 22.7672C104.457 23.6376 104.651 24.6098 104.651 25.6839C104.651 26.758 104.457 27.7302 104.068 28.6006C103.679 29.471 103.142 30.221 102.457 30.8506C101.79 31.4617 100.994 31.934 100.068 32.2673C99.1604 32.6006 98.1881 32.7673 97.1511 32.7673C96.114 32.7673 95.1325 32.6006 94.2066 32.2673C93.2992 31.934 92.5029 31.4617 91.8177 30.8506C91.151 30.221 90.6232 29.471 90.2343 28.6006C89.8454 27.7302 89.651 26.758 89.651 25.6839ZM93.8177 25.6839C93.8177 26.7024 94.1047 27.5265 94.6788 28.1561C95.2714 28.7858 96.0955 29.1006 97.1511 29.1006C98.2066 29.1006 99.0215 28.7858 99.5955 28.1561C100.188 27.5265 100.484 26.7024 100.484 25.6839C100.484 24.6654 100.188 23.8413 99.5955 23.2116C99.0215 22.582 98.2066 22.2672 97.1511 22.2672C96.0955 22.2672 95.2714 22.582 94.6788 23.2116C94.1047 23.8413 93.8177 24.6654 93.8177 25.6839ZM116.3 22.2672H112.633V26.7672C112.633 27.1376 112.652 27.4802 112.689 27.795C112.726 28.0913 112.809 28.3506 112.939 28.5728C113.068 28.795 113.263 28.971 113.522 29.1006C113.8 29.2117 114.161 29.2673 114.605 29.2673C114.828 29.2673 115.115 29.2487 115.467 29.2117C115.837 29.1561 116.115 29.045 116.3 28.8784V32.3506C115.837 32.5173 115.355 32.6284 114.855 32.684C114.355 32.7395 113.865 32.7673 113.383 32.7673C112.68 32.7673 112.031 32.6932 111.439 32.5451C110.846 32.3969 110.328 32.1654 109.883 31.8506C109.439 31.5173 109.087 31.0914 108.828 30.5728C108.587 30.0543 108.467 29.4247 108.467 28.6839V22.2672H105.8V18.9338H108.467V14.9338H112.633V18.9338H116.3V22.2672ZM126.89 30.7395H126.834C126.371 31.4617 125.751 31.9803 124.973 32.2951C124.214 32.6099 123.408 32.7673 122.556 32.7673C121.927 32.7673 121.316 32.6747 120.723 32.4895C120.149 32.3228 119.64 32.0636 119.195 31.7117C118.751 31.3599 118.399 30.9247 118.14 30.4062C117.88 29.8876 117.751 29.2858 117.751 28.6006C117.751 27.8228 117.89 27.1654 118.167 26.6283C118.464 26.0913 118.853 25.6469 119.334 25.295C119.834 24.9431 120.399 24.6746 121.028 24.4894C121.658 24.2857 122.306 24.1376 122.973 24.045C123.658 23.9524 124.334 23.8968 125.001 23.8783C125.686 23.8598 126.316 23.8505 126.89 23.8505C126.89 23.1098 126.621 22.5264 126.084 22.1005C125.566 21.6561 124.945 21.4338 124.223 21.4338C123.538 21.4338 122.908 21.582 122.334 21.8783C121.778 22.1561 121.278 22.545 120.834 23.045L118.612 20.7672C119.39 20.0449 120.297 19.5079 121.334 19.156C122.371 18.7857 123.445 18.6005 124.556 18.6005C125.779 18.6005 126.779 18.7579 127.556 19.0727C128.353 19.369 128.982 19.8135 129.445 20.4061C129.927 20.9987 130.26 21.7301 130.445 22.6005C130.63 23.4524 130.723 24.4431 130.723 25.5728V32.434H126.89V30.7395ZM125.862 26.5172C125.547 26.5172 125.149 26.5358 124.667 26.5728C124.204 26.5913 123.751 26.6654 123.306 26.795C122.88 26.9246 122.51 27.1191 122.195 27.3784C121.899 27.6376 121.751 27.9987 121.751 28.4617C121.751 28.9617 121.964 29.3321 122.39 29.5728C122.816 29.8136 123.26 29.9339 123.723 29.9339C124.13 29.9339 124.519 29.8784 124.89 29.7673C125.279 29.6562 125.621 29.4987 125.917 29.295C126.214 29.0913 126.445 28.8321 126.612 28.5173C126.797 28.2024 126.89 27.8321 126.89 27.4061V26.5172H125.862ZM133.393 11.4337H137.559V32.434H133.393V11.4337ZM159.023 17.5727C158.671 17.1282 158.189 16.8042 157.578 16.6005C156.986 16.3782 156.421 16.2671 155.884 16.2671C155.569 16.2671 155.245 16.3042 154.911 16.3782C154.578 16.4523 154.263 16.5727 153.967 16.7394C153.671 16.8875 153.43 17.0912 153.245 17.3505C153.06 17.6097 152.967 17.9245 152.967 18.2949C152.967 18.8875 153.189 19.3412 153.634 19.656C154.078 19.9709 154.634 20.2394 155.3 20.4616C155.986 20.6838 156.717 20.9061 157.495 21.1283C158.273 21.3505 158.995 21.6653 159.661 22.0727C160.347 22.4802 160.911 23.0265 161.356 23.7116C161.8 24.3968 162.023 25.3135 162.023 26.4617C162.023 27.5543 161.819 28.508 161.412 29.3228C161.004 30.1376 160.449 30.8136 159.745 31.3506C159.06 31.8877 158.254 32.2858 157.328 32.5451C156.421 32.8043 155.458 32.934 154.439 32.934C153.161 32.934 151.976 32.7395 150.884 32.3506C149.791 31.9617 148.772 31.3321 147.828 30.4617L150.911 27.0728C151.356 27.6654 151.911 28.1284 152.578 28.4617C153.263 28.7765 153.967 28.9339 154.689 28.9339C155.041 28.9339 155.393 28.8969 155.745 28.8228C156.115 28.7302 156.439 28.6006 156.717 28.4339C157.013 28.2672 157.245 28.0543 157.411 27.795C157.597 27.5358 157.689 27.2302 157.689 26.8783C157.689 26.2857 157.458 25.8228 156.995 25.4894C156.55 25.1376 155.986 24.8413 155.3 24.6005C154.615 24.3598 153.874 24.1191 153.078 23.8783C152.282 23.6376 151.541 23.3135 150.856 22.9061C150.171 22.4987 149.597 21.9616 149.134 21.295C148.689 20.6283 148.467 19.7486 148.467 18.656C148.467 17.6005 148.671 16.6745 149.078 15.8782C149.504 15.0819 150.06 14.4153 150.745 13.8782C151.448 13.3412 152.254 12.943 153.161 12.6838C154.069 12.406 155.004 12.2671 155.967 12.2671C157.078 12.2671 158.152 12.4245 159.189 12.7393C160.226 13.0541 161.162 13.5819 161.995 14.3227L159.023 17.5727ZM164.223 25.6839C164.223 24.6098 164.418 23.6376 164.807 22.7672C165.195 21.8968 165.723 21.1561 166.39 20.5449C167.075 19.9153 167.871 19.4338 168.779 19.1005C169.705 18.7672 170.686 18.6005 171.723 18.6005C172.76 18.6005 173.733 18.7672 174.64 19.1005C175.566 19.4338 176.362 19.9153 177.029 20.5449C177.714 21.1561 178.251 21.8968 178.64 22.7672C179.029 23.6376 179.223 24.6098 179.223 25.6839C179.223 26.758 179.029 27.7302 178.64 28.6006C178.251 29.471 177.714 30.221 177.029 30.8506C176.362 31.4617 175.566 31.934 174.64 32.2673C173.733 32.6006 172.76 32.7673 171.723 32.7673C170.686 32.7673 169.705 32.6006 168.779 32.2673C167.871 31.934 167.075 31.4617 166.39 30.8506C165.723 30.221 165.195 29.471 164.807 28.6006C164.418 27.7302 164.223 26.758 164.223 25.6839ZM168.39 25.6839C168.39 26.7024 168.677 27.5265 169.251 28.1561C169.844 28.7858 170.668 29.1006 171.723 29.1006C172.779 29.1006 173.594 28.7858 174.168 28.1561C174.76 27.5265 175.057 26.7024 175.057 25.6839C175.057 24.6654 174.76 23.8413 174.168 23.2116C173.594 22.582 172.779 22.2672 171.723 22.2672C170.668 22.2672 169.844 22.582 169.251 23.2116C168.677 23.8413 168.39 24.6654 168.39 25.6839ZM190.591 12.7671H203.786V16.7671H194.925V20.7672H203.119V24.7672H194.925V32.434H190.591V12.7671ZM214.835 30.7395H214.78C214.317 31.4617 213.697 31.9803 212.919 32.2951C212.159 32.6099 211.354 32.7673 210.502 32.7673C209.872 32.7673 209.261 32.6747 208.669 32.4895C208.095 32.3228 207.585 32.0636 207.141 31.7117C206.696 31.3599 206.345 30.9247 206.085 30.4062C205.826 29.8876 205.696 29.2858 205.696 28.6006C205.696 27.8228 205.835 27.1654 206.113 26.6283C206.409 26.0913 206.798 25.6469 207.28 25.295C207.78 24.9431 208.345 24.6746 208.974 24.4894C209.604 24.2857 210.252 24.1376 210.919 24.045C211.604 23.9524 212.28 23.8968 212.947 23.8783C213.632 23.8598 214.261 23.8505 214.835 23.8505C214.835 23.1098 214.567 22.5264 214.03 22.1005C213.511 21.6561 212.891 21.4338 212.169 21.4338C211.484 21.4338 210.854 21.582 210.28 21.8783C209.724 22.1561 209.224 22.545 208.78 23.045L206.558 20.7672C207.335 20.0449 208.243 19.5079 209.28 19.156C210.317 18.7857 211.391 18.6005 212.502 18.6005C213.724 18.6005 214.724 18.7579 215.502 19.0727C216.298 19.369 216.928 19.8135 217.391 20.4061C217.873 20.9987 218.206 21.7301 218.391 22.6005C218.576 23.4524 218.669 24.4431 218.669 25.5728V32.434H214.835V30.7395ZM213.808 26.5172C213.493 26.5172 213.095 26.5358 212.613 26.5728C212.15 26.5913 211.697 26.6654 211.252 26.795C210.826 26.9246 210.456 27.1191 210.141 27.3784C209.845 27.6376 209.697 27.9987 209.697 28.4617C209.697 28.9617 209.909 29.3321 210.335 29.5728C210.761 29.8136 211.206 29.9339 211.669 29.9339C212.076 29.9339 212.465 29.8784 212.835 29.7673C213.224 29.6562 213.567 29.4987 213.863 29.295C214.16 29.0913 214.391 28.8321 214.558 28.5173C214.743 28.2024 214.835 27.8321 214.835 27.4061V26.5172H213.808ZM221.283 18.9338H225.45V21.1005H225.505C225.95 20.2672 226.477 19.6468 227.089 19.2394C227.7 18.8134 228.468 18.6005 229.394 18.6005C229.635 18.6005 229.876 18.6097 230.116 18.6283C230.357 18.6468 230.579 18.6838 230.783 18.7394V22.545C230.487 22.4524 230.19 22.3876 229.894 22.3505C229.616 22.295 229.32 22.2672 229.005 22.2672C228.209 22.2672 227.579 22.3783 227.116 22.6005C226.653 22.8227 226.292 23.1376 226.033 23.545C225.792 23.9339 225.635 24.4061 225.561 24.9617C225.487 25.5172 225.45 26.1283 225.45 26.795V32.434H221.283V18.9338ZM230.128 30.045C230.128 29.6932 230.193 29.3599 230.323 29.045C230.452 28.7302 230.628 28.4617 230.851 28.2395C231.091 27.9987 231.369 27.8135 231.684 27.6839C231.999 27.5543 232.332 27.4895 232.684 27.4895C233.036 27.4895 233.369 27.5543 233.684 27.6839C233.999 27.8135 234.267 27.9987 234.49 28.2395C234.73 28.4617 234.915 28.7302 235.045 29.045C235.175 29.3599 235.24 29.6932 235.24 30.045C235.24 30.3969 235.175 30.7302 235.045 31.0451C234.915 31.3599 234.73 31.6377 234.49 31.8784C234.267 32.1006 233.999 32.2766 233.684 32.4062C233.369 32.5358 233.036 32.6006 232.684 32.6006C232.332 32.6006 231.999 32.5358 231.684 32.4062C231.369 32.2766 231.091 32.1006 230.851 31.8784C230.628 31.6377 230.452 31.3599 230.323 31.0451C230.193 30.7302 230.128 30.3969 230.128 30.045ZM238.348 30.045C238.348 29.6932 238.413 29.3599 238.542 29.045C238.672 28.7302 238.848 28.4617 239.07 28.2395C239.311 27.9987 239.589 27.8135 239.903 27.6839C240.218 27.5543 240.552 27.4895 240.903 27.4895C241.255 27.4895 241.589 27.5543 241.903 27.6839C242.218 27.8135 242.487 27.9987 242.709 28.2395C242.95 28.4617 243.135 28.7302 243.265 29.045C243.394 29.3599 243.459 29.6932 243.459 30.045C243.459 30.3969 243.394 30.7302 243.265 31.0451C243.135 31.3599 242.95 31.6377 242.709 31.8784C242.487 32.1006 242.218 32.2766 241.903 32.4062C241.589 32.5358 241.255 32.6006 240.903 32.6006C240.552 32.6006 240.218 32.5358 239.903 32.4062C239.589 32.2766 239.311 32.1006 239.07 31.8784C238.848 31.6377 238.672 31.3599 238.542 31.0451C238.413 30.7302 238.348 30.3969 238.348 30.045ZM246.567 30.045C246.567 29.6932 246.632 29.3599 246.762 29.045C246.891 28.7302 247.067 28.4617 247.29 28.2395C247.53 27.9987 247.808 27.8135 248.123 27.6839C248.438 27.5543 248.771 27.4895 249.123 27.4895C249.475 27.4895 249.808 27.5543 250.123 27.6839C250.438 27.8135 250.706 27.9987 250.928 28.2395C251.169 28.4617 251.354 28.7302 251.484 29.045C251.614 29.3599 251.679 29.6932 251.679 30.045C251.679 30.3969 251.614 30.7302 251.484 31.0451C251.354 31.3599 251.169 31.6377 250.928 31.8784C250.706 32.1006 250.438 32.2766 250.123 32.4062C249.808 32.5358 249.475 32.6006 249.123 32.6006C248.771 32.6006 248.438 32.5358 248.123 32.4062C247.808 32.2766 247.53 32.1006 247.29 31.8784C247.067 31.6377 246.891 31.3599 246.762 31.0451C246.632 30.7302 246.567 30.3969 246.567 30.045Z" fill="#00017D"/>
<path d="M25.85 4.86215V0H21.15V4.86215C12.6641 5.9267 5.9267 12.6641 4.86215 21.15H0V25.85H4.86215C5.9267 34.3358 12.6618 41.0733 21.15 42.1378V47H25.85V42.1378C34.3358 41.0733 41.0733 34.3382 42.1378 25.85H47V21.15H42.1378C41.0733 12.6641 34.3358 5.9267 25.85 4.86215ZM23.5 37.6C15.7239 37.6 9.4 31.2761 9.4 23.5C9.4 15.7239 15.7239 9.4 23.5 9.4C31.2761 9.4 37.6 15.7239 37.6 23.5C37.6 31.2761 31.2761 37.6 23.5 37.6Z" fill="#00017D"/>
<path d="M24.9061 23.5C25.4887 23.5 25.961 23.0277 25.961 22.4451C25.961 21.8624 25.4887 21.3901 24.9061 21.3901C24.3234 21.3901 23.8511 21.8624 23.8511 22.4451C23.8511 23.0277 24.3234 23.5 24.9061 23.5Z" fill="#00017D"/>
<path d="M21.3898 27.0166C22.1667 27.0166 22.7964 26.3868 22.7964 25.6099C22.7964 24.8331 22.1667 24.2033 21.3898 24.2033C20.6129 24.2033 19.9832 24.8331 19.9832 25.6099C19.9832 26.3868 20.6129 27.0166 21.3898 27.0166Z" fill="#00017D"/>
<path d="M26.1374 27.0166C26.4287 27.0166 26.6648 26.7805 26.6648 26.4891C26.6648 26.1978 26.4287 25.9616 26.1374 25.9616C25.846 25.9616 25.6099 26.1978 25.6099 26.4891C25.6099 26.7805 25.846 27.0166 26.1374 27.0166Z" fill="#00017D"/>
<path d="M19.9833 20.6868C20.1775 20.6868 20.3349 20.5293 20.3349 20.3351C20.3349 20.1409 20.1775 19.9835 19.9833 19.9835C19.789 19.9835 19.6316 20.1409 19.6316 20.3351C19.6316 20.5293 19.789 20.6868 19.9833 20.6868Z" fill="#00017D"/>
<path d="M27.0165 20.3351C27.2107 20.3351 27.3681 20.1776 27.3681 19.9834C27.3681 19.7892 27.2107 19.6318 27.0165 19.6318C26.8222 19.6318 26.6648 19.7892 26.6648 19.9834C26.6648 20.1776 26.8222 20.3351 27.0165 20.3351Z" fill="#00017D"/>
<path d="M33.1532 21.39C32.7192 21.3957 32.3064 21.6049 32.0454 21.9527C31.6491 22.4812 31.0182 22.7967 30.3575 22.7967C29.7129 22.7967 29.0883 22.6075 28.5517 22.2498L28.2282 22.0343L28.6182 21.4491L28.9417 21.6647C29.2698 21.8834 29.6401 22.0188 30.0269 22.0691C29.8233 21.1393 29.4196 20.2552 28.8453 19.4911C28.7402 19.3511 28.7543 19.1549 28.878 19.0311L29.5596 18.3496C29.8669 18.0422 30.2752 17.8734 30.7091 17.8734C30.9553 17.8734 31.1867 17.7778 31.3611 17.6034L31.5869 17.3776C31.5661 16.8617 31.3555 16.3792 30.9883 16.0121C30.6212 15.645 30.1387 15.434 29.6229 15.4136L29.3971 15.6394C29.2223 15.8134 29.1267 16.0448 29.1267 16.291C29.1267 16.7249 28.9579 17.1332 28.6505 17.4402L27.969 18.1217C27.8452 18.2455 27.6497 18.2596 27.509 18.1544C26.7449 17.5802 25.8608 17.1768 24.931 16.9728C24.9813 17.3597 25.1167 17.73 25.3354 18.0581L25.551 18.3816L24.9658 18.7716L24.7503 18.4481C24.3926 17.9118 24.2034 17.2872 24.2034 16.6426C24.2034 15.9822 24.5189 15.3513 25.0474 14.9547C25.3952 14.6937 25.6044 14.2809 25.6101 13.847C25.0144 13.4897 24.3367 13.3019 23.639 13.3019H23.3612C22.6635 13.3019 21.9859 13.4897 21.3902 13.847C21.3958 14.2809 21.605 14.6937 21.9528 14.9547C22.4814 15.351 22.7968 15.9819 22.7968 16.6426C22.7968 17.2872 22.6076 17.9118 22.25 18.4484L22.0344 18.7719L21.4492 18.3819L21.6648 18.0584C21.8835 17.7303 22.0189 17.36 22.0692 16.9732C21.1394 17.1768 20.2554 17.5805 19.4912 18.1548C19.3512 18.2599 19.1547 18.2459 19.0312 18.1221L18.3497 17.4406C18.0424 17.1332 17.8736 16.7249 17.8736 16.291C17.8736 16.0448 17.7779 15.8134 17.6035 15.639L17.3777 15.4136C16.8618 15.4343 16.3794 15.645 16.0122 16.0121C15.6451 16.3792 15.4341 16.8617 15.4137 17.3776L15.6395 17.6034C15.8136 17.7778 16.0449 17.8734 16.2911 17.8734C16.7251 17.8734 17.1333 18.0422 17.4403 18.3496L18.1218 19.0311C18.2456 19.1549 18.2597 19.3511 18.1545 19.4911C17.5803 20.2552 17.1769 21.1393 16.973 22.0691C17.3598 22.0188 17.7301 21.8834 18.0582 21.6647L18.3817 21.4491L18.7717 22.0343L18.4482 22.2498C17.9119 22.6075 17.2874 22.7967 16.6428 22.7967C15.9823 22.7967 15.3515 22.4812 14.9548 21.9527C14.6939 21.6049 14.281 21.3957 13.8471 21.39C13.4898 21.9857 13.302 22.6634 13.302 23.3611V23.6389C13.302 24.3366 13.4898 25.0142 13.8471 25.6099C14.281 25.6043 14.6939 25.3951 14.9548 25.0473C15.3511 24.5188 15.982 24.2033 16.6428 24.2033C17.2874 24.2033 17.9119 24.3925 18.4485 24.7501L18.7721 24.9657L18.3821 25.5509L18.0585 25.3353C17.7304 25.1166 17.3601 24.9812 16.9733 24.9309C17.1769 25.8607 17.5806 26.7448 18.1549 27.5089C18.26 27.6489 18.246 27.8451 18.1222 27.9689L17.4407 28.6504C17.1333 28.9577 16.7251 29.1265 16.2911 29.1265C16.0449 29.1265 15.8136 29.2222 15.6391 29.3966L15.4137 29.6224C15.4345 30.1383 15.6451 30.6207 16.0122 30.9879C16.3794 31.355 16.8618 31.566 17.3777 31.5864L17.6035 31.3606C17.7779 31.1866 17.8736 30.9552 17.8736 30.709C17.8736 30.2751 18.0424 29.8668 18.3497 29.5598L19.0312 28.8783C19.1547 28.7545 19.3505 28.7404 19.4912 28.8456C20.2554 29.4198 21.1394 29.8232 22.0692 30.0271C22.0189 29.6403 21.8835 29.27 21.6648 28.9419L21.4492 28.6184L22.0344 28.2284L22.25 28.5519C22.6076 29.0882 22.7968 29.7128 22.7968 30.3573C22.7968 31.0178 22.4814 31.6486 21.9528 32.0453C21.605 32.3062 21.3958 32.7191 21.3902 33.153C21.9855 33.5103 22.6632 33.6981 23.3612 33.6981H23.639C24.3367 33.6981 25.0144 33.5103 25.6097 33.153C25.6041 32.7191 25.3949 32.3062 25.0471 32.0453C24.5185 31.649 24.2031 31.0181 24.2031 30.3573C24.2031 29.7128 24.3923 29.0882 24.7499 28.5516L24.9655 28.228L25.5506 28.618L25.3351 28.9416C25.1163 29.2697 24.981 29.64 24.9307 30.0268C25.8605 29.8232 26.7445 29.4195 27.5087 28.8452C27.6486 28.7401 27.8449 28.7541 27.9686 28.8779L28.6502 29.5594C28.9579 29.8668 29.1267 30.2751 29.1267 30.709C29.1267 30.9552 29.2223 31.1866 29.3967 31.361L29.6225 31.5867C30.1384 31.566 30.6209 31.3554 30.988 30.9882C31.3551 30.6211 31.5661 30.1386 31.5865 29.6227L31.3608 29.397C31.1867 29.2222 30.9553 29.1265 30.7091 29.1265C30.2752 29.1265 29.8669 28.9577 29.5599 28.6504L28.8784 27.9689C28.7546 27.8451 28.7405 27.6489 28.8457 27.5089C29.4199 26.7448 29.8233 25.8607 30.0273 24.9309C29.6404 24.9812 29.2701 25.1166 28.942 25.3353L28.6185 25.5509L28.2285 24.9657L28.5521 24.7501C29.0883 24.3925 29.7129 24.2033 30.3575 24.2033C31.0179 24.2033 31.6488 24.5188 32.0454 25.0473C32.3064 25.3951 32.7192 25.6043 33.1532 25.6099C33.5104 25.0146 33.6982 24.3369 33.6982 23.6389V23.3611C33.6982 22.6634 33.5104 21.9857 33.1532 21.39V21.39ZM18.9285 20.3351C18.9285 19.7534 19.4019 19.2801 19.9835 19.2801C20.5652 19.2801 21.0385 19.7534 21.0385 20.3351C21.0385 20.9167 20.5652 21.39 19.9835 21.39C19.4019 21.39 18.9285 20.9167 18.9285 20.3351ZM21.3902 27.7199C20.2265 27.7199 19.2802 26.7736 19.2802 25.6099C19.2802 24.4463 20.2265 23.5 21.3902 23.5C22.5538 23.5 23.5001 24.4463 23.5001 25.6099C23.5001 26.7736 22.5538 27.7199 21.3902 27.7199ZM23.1485 22.445C23.1485 21.4755 23.9372 20.6867 24.9068 20.6867C25.8763 20.6867 26.665 21.4755 26.665 22.445C26.665 23.4145 25.8763 24.2033 24.9068 24.2033C23.9372 24.2033 23.1485 23.4145 23.1485 22.445ZM26.1376 27.7199C25.4589 27.7199 24.9068 27.1678 24.9068 26.4891C24.9068 25.8104 25.4589 25.2583 26.1376 25.2583C26.8163 25.2583 27.3684 25.8104 27.3684 26.4891C27.3684 27.1678 26.8163 27.7199 26.1376 27.7199ZM27.0167 21.0384C26.4351 21.0384 25.9617 20.565 25.9617 19.9834C25.9617 19.4018 26.4351 18.9284 27.0167 18.9284C27.5984 18.9284 28.0717 19.4018 28.0717 19.9834C28.0717 20.565 27.5984 21.0384 27.0167 21.0384Z" fill="#00017D"/>
</svg>
