<svg width="214" height="40" viewBox="0 0 214 40" fill="none" xmlns="http://www.w3.org/2000/svg">
<path d="M68.9341 13.373H64.1955V10.1357H77.3324V13.373H72.5937V26.7445H68.9341V13.373ZM75.7112 21.044C75.7112 20.1369 75.8754 19.3159 76.2038 18.5808C76.5322 17.8458 76.9779 17.2202 77.541 16.7041C78.1196 16.1724 78.7921 15.7658 79.5584 15.4843C80.3404 15.2028 81.1692 15.062 82.045 15.062C82.9208 15.062 83.7419 15.2028 84.5082 15.4843C85.2902 15.7658 85.9627 16.1724 86.5257 16.7041C87.1043 17.2202 87.5579 17.8458 87.8863 18.5808C88.2147 19.3159 88.3789 20.1369 88.3789 21.044C88.3789 21.9511 88.2147 22.7721 87.8863 23.5072C87.5579 24.2422 87.1043 24.8756 86.5257 25.4074C85.9627 25.9234 85.2902 26.3222 84.5082 26.6038C83.7419 26.8853 82.9208 27.026 82.045 27.026C81.1692 27.026 80.3404 26.8853 79.5584 26.6038C78.7921 26.3222 78.1196 25.9234 77.541 25.4074C76.9779 24.8756 76.5322 24.2422 76.2038 23.5072C75.8754 22.7721 75.7112 21.9511 75.7112 21.044ZM79.23 21.044C79.23 21.9042 79.4724 22.6001 79.9572 23.1319C80.4577 23.6636 81.1536 23.9295 82.045 23.9295C82.9365 23.9295 83.6246 23.6636 84.1094 23.1319C84.6099 22.6001 84.8601 21.9042 84.8601 21.044C84.8601 20.1839 84.6099 19.4879 84.1094 18.9562C83.6246 18.4245 82.9365 18.1586 82.045 18.1586C81.1536 18.1586 80.4577 18.4245 79.9572 18.9562C79.4724 19.4879 79.23 20.1839 79.23 21.044ZM98.2164 18.1586H95.1198V21.9589C95.1198 22.2717 95.1355 22.561 95.1668 22.8269C95.198 23.0771 95.2684 23.2961 95.3779 23.4837C95.4874 23.6714 95.6516 23.82 95.8705 23.9295C96.1051 24.0233 96.4101 24.0702 96.7854 24.0702C96.9731 24.0702 97.2155 24.0546 97.5126 24.0233C97.8254 23.9764 98.06 23.8825 98.2164 23.7418V26.6741C97.8254 26.8149 97.4188 26.9087 96.9965 26.9556C96.5743 27.0026 96.1599 27.026 95.7532 27.026C95.1589 27.026 94.6116 26.9635 94.1111 26.8383C93.6107 26.7132 93.1728 26.5177 92.7974 26.2519C92.4221 25.9704 92.1249 25.6107 91.906 25.1728C91.7027 24.7349 91.601 24.2031 91.601 23.5776V18.1586H89.349V15.3435H91.601V11.9655H95.1198V15.3435H98.2164V18.1586ZM107.16 25.3135H107.113C106.722 25.9234 106.198 26.3613 105.541 26.6272C104.9 26.8931 104.219 27.026 103.5 27.026C102.968 27.026 102.452 26.9478 101.952 26.7914C101.467 26.6507 101.037 26.4317 100.661 26.1346C100.286 25.8374 99.9889 25.4699 99.77 25.032C99.5511 24.5941 99.4416 24.0858 99.4416 23.5072C99.4416 22.8503 99.5589 22.2952 99.7935 21.8416C100.044 21.3881 100.372 21.0127 100.779 20.7156C101.201 20.4184 101.678 20.1917 102.21 20.0353C102.741 19.8633 103.289 19.7381 103.852 19.6599C104.43 19.5818 105.001 19.5348 105.564 19.5192C106.143 19.5036 106.675 19.4957 107.16 19.4957C107.16 18.8702 106.933 18.3775 106.479 18.0178C106.041 17.6425 105.517 17.4548 104.907 17.4548C104.329 17.4548 103.797 17.5799 103.312 17.8302C102.843 18.0648 102.421 18.3932 102.046 18.8154L100.169 16.8918C100.826 16.2819 101.592 15.8283 102.468 15.5312C103.344 15.2184 104.251 15.062 105.189 15.062C106.221 15.062 107.066 15.195 107.723 15.4608C108.395 15.711 108.927 16.0864 109.318 16.5868C109.724 17.0873 110.006 17.705 110.162 18.4401C110.319 19.1595 110.397 19.9962 110.397 20.9502V26.7445H107.16V25.3135ZM106.292 21.7478C106.026 21.7478 105.689 21.7634 105.283 21.7947C104.892 21.8103 104.509 21.8729 104.133 21.9824C103.774 22.0918 103.461 22.2561 103.195 22.475C102.945 22.694 102.82 22.9989 102.82 23.3899C102.82 23.8122 102.999 24.1249 103.359 24.3283C103.719 24.5316 104.094 24.6332 104.485 24.6332C104.829 24.6332 105.158 24.5863 105.47 24.4925C105.799 24.3986 106.088 24.2657 106.338 24.0937C106.589 23.9216 106.784 23.7027 106.925 23.4368C107.081 23.1709 107.16 22.8582 107.16 22.4985V21.7478H106.292ZM112.651 9.00965H116.17V26.7445H112.651V9.00965ZM134.296 14.194C133.999 13.8187 133.592 13.545 133.076 13.373C132.576 13.1853 132.099 13.0915 131.645 13.0915C131.379 13.0915 131.106 13.1228 130.824 13.1853C130.543 13.2479 130.277 13.3495 130.027 13.4903C129.776 13.6154 129.573 13.7874 129.417 14.0064C129.26 14.2253 129.182 14.4912 129.182 14.804C129.182 15.3044 129.37 15.6876 129.745 15.9535C130.12 16.2193 130.59 16.4461 131.153 16.6338C131.731 16.8214 132.349 17.0091 133.006 17.1968C133.663 17.3844 134.273 17.6503 134.836 17.9944C135.414 18.3384 135.891 18.7998 136.267 19.3784C136.642 19.9571 136.83 20.7312 136.83 21.7009C136.83 22.6236 136.658 23.429 136.313 24.1171C135.969 24.8052 135.5 25.3761 134.906 25.8296C134.327 26.2832 133.647 26.6194 132.865 26.8383C132.099 27.0573 131.285 27.1668 130.425 27.1668C129.346 27.1668 128.345 27.0026 127.423 26.6741C126.5 26.3457 125.64 25.814 124.842 25.0789L127.446 22.217C127.821 22.7174 128.291 23.1084 128.854 23.3899C129.432 23.6558 130.027 23.7887 130.636 23.7887C130.934 23.7887 131.231 23.7574 131.528 23.6949C131.841 23.6167 132.114 23.5072 132.349 23.3664C132.599 23.2257 132.795 23.0458 132.935 22.8269C133.092 22.6079 133.17 22.3499 133.17 22.0527C133.17 21.5523 132.975 21.1613 132.584 20.8798C132.208 20.5827 131.731 20.3324 131.153 20.1291C130.574 19.9258 129.948 19.7225 129.276 19.5192C128.603 19.3159 127.978 19.0422 127.399 18.6981C126.821 18.3541 126.336 17.9005 125.945 17.3375C125.569 16.7745 125.382 16.0317 125.382 15.1089C125.382 14.2175 125.554 13.4355 125.898 12.7631C126.257 12.0906 126.727 11.5276 127.305 11.074C127.9 10.6205 128.58 10.2842 129.346 10.0653C130.113 9.83071 130.902 9.71342 131.716 9.71342C132.654 9.71342 133.561 9.84635 134.437 10.1122C135.313 10.3781 136.102 10.8238 136.806 11.4494L134.296 14.194ZM138.688 21.044C138.688 20.1369 138.852 19.3159 139.181 18.5808C139.509 17.8458 139.955 17.2202 140.518 16.7041C141.096 16.1724 141.769 15.7658 142.535 15.4843C143.317 15.2028 144.146 15.062 145.022 15.062C145.898 15.062 146.719 15.2028 147.485 15.4843C148.267 15.7658 148.939 16.1724 149.502 16.7041C150.081 17.2202 150.535 17.8458 150.863 18.5808C151.192 19.3159 151.356 20.1369 151.356 21.044C151.356 21.9511 151.192 22.7721 150.863 23.5072C150.535 24.2422 150.081 24.8756 149.502 25.4074C148.939 25.9234 148.267 26.3222 147.485 26.6038C146.719 26.8853 145.898 27.026 145.022 27.026C144.146 27.026 143.317 26.8853 142.535 26.6038C141.769 26.3222 141.096 25.9234 140.518 25.4074C139.955 24.8756 139.509 24.2422 139.181 23.5072C138.852 22.7721 138.688 21.9511 138.688 21.044ZM142.207 21.044C142.207 21.9042 142.449 22.6001 142.934 23.1319C143.434 23.6636 144.13 23.9295 145.022 23.9295C145.913 23.9295 146.601 23.6636 147.086 23.1319C147.587 22.6001 147.837 21.9042 147.837 21.044C147.837 20.1839 147.587 19.4879 147.086 18.9562C146.601 18.4245 145.913 18.1586 145.022 18.1586C144.13 18.1586 143.434 18.4245 142.934 18.9562C142.449 19.4879 142.207 20.1839 142.207 21.044ZM160.956 10.1357H172.099V13.5137H164.616V16.8918H171.536V20.2699H164.616V26.7445H160.956V10.1357ZM181.43 25.3135H181.384C180.993 25.9234 180.469 26.3613 179.812 26.6272C179.171 26.8931 178.49 27.026 177.771 27.026C177.239 27.026 176.723 26.9478 176.223 26.7914C175.738 26.6507 175.308 26.4317 174.932 26.1346C174.557 25.8374 174.26 25.4699 174.041 25.032C173.822 24.5941 173.713 24.0858 173.713 23.5072C173.713 22.8503 173.83 22.2952 174.064 21.8416C174.315 21.3881 174.643 21.0127 175.05 20.7156C175.472 20.4184 175.949 20.1917 176.481 20.0353C177.012 19.8633 177.56 19.7381 178.123 19.6599C178.701 19.5818 179.272 19.5348 179.835 19.5192C180.414 19.5036 180.946 19.4957 181.43 19.4957C181.43 18.8702 181.204 18.3775 180.75 18.0178C180.312 17.6425 179.788 17.4548 179.178 17.4548C178.6 17.4548 178.068 17.5799 177.583 17.8302C177.114 18.0648 176.692 18.3932 176.316 18.8154L174.44 16.8918C175.097 16.2819 175.863 15.8283 176.739 15.5312C177.614 15.2184 178.522 15.062 179.46 15.062C180.492 15.062 181.337 15.195 181.993 15.4608C182.666 15.711 183.198 16.0864 183.589 16.5868C183.995 17.0873 184.277 17.705 184.433 18.4401C184.59 19.1595 184.668 19.9962 184.668 20.9502V26.7445H181.43V25.3135ZM180.562 21.7478C180.297 21.7478 179.96 21.7634 179.554 21.7947C179.163 21.8103 178.78 21.8729 178.404 21.9824C178.045 22.0918 177.732 22.2561 177.466 22.475C177.216 22.694 177.091 22.9989 177.091 23.3899C177.091 23.8122 177.27 24.1249 177.63 24.3283C177.99 24.5316 178.365 24.6332 178.756 24.6332C179.1 24.6332 179.429 24.5863 179.741 24.4925C180.07 24.3986 180.359 24.2657 180.609 24.0937C180.86 23.9216 181.055 23.7027 181.196 23.4368C181.352 23.1709 181.43 22.8582 181.43 22.4985V21.7478H180.562ZM186.875 15.3435H190.394V17.1733H190.441C190.817 16.4696 191.262 15.9456 191.778 15.6016C192.294 15.2419 192.943 15.062 193.725 15.062C193.929 15.062 194.132 15.0698 194.335 15.0855C194.539 15.1011 194.726 15.1324 194.898 15.1793V18.3932C194.648 18.315 194.398 18.2602 194.148 18.229C193.913 18.182 193.663 18.1586 193.397 18.1586C192.725 18.1586 192.193 18.2524 191.802 18.4401C191.411 18.6278 191.106 18.8936 190.887 19.2377C190.684 19.5661 190.551 19.9649 190.488 20.4341C190.426 20.9033 190.394 21.4194 190.394 21.9824V26.7445H186.875V15.3435ZM194.345 24.727C194.345 24.4299 194.4 24.1484 194.51 23.8825C194.619 23.6167 194.768 23.3899 194.955 23.2022C195.159 22.9989 195.393 22.8425 195.659 22.7331C195.925 22.6236 196.207 22.5688 196.504 22.5688C196.801 22.5688 197.082 22.6236 197.348 22.7331C197.614 22.8425 197.841 22.9989 198.028 23.2022C198.232 23.3899 198.388 23.6167 198.498 23.8825C198.607 24.1484 198.662 24.4299 198.662 24.727C198.662 25.0242 198.607 25.3057 198.498 25.5716C198.388 25.8374 198.232 26.072 198.028 26.2753C197.841 26.463 197.614 26.6116 197.348 26.721C197.082 26.8305 196.801 26.8853 196.504 26.8853C196.207 26.8853 195.925 26.8305 195.659 26.721C195.393 26.6116 195.159 26.463 194.955 26.2753C194.768 26.072 194.619 25.8374 194.51 25.5716C194.4 25.3057 194.345 25.0242 194.345 24.727ZM201.287 24.727C201.287 24.4299 201.342 24.1484 201.451 23.8825C201.561 23.6167 201.709 23.3899 201.897 23.2022C202.1 22.9989 202.335 22.8425 202.601 22.7331C202.866 22.6236 203.148 22.5688 203.445 22.5688C203.742 22.5688 204.024 22.6236 204.29 22.7331C204.555 22.8425 204.782 22.9989 204.97 23.2022C205.173 23.3899 205.33 23.6167 205.439 23.8825C205.549 24.1484 205.603 24.4299 205.603 24.727C205.603 25.0242 205.549 25.3057 205.439 25.5716C205.33 25.8374 205.173 26.072 204.97 26.2753C204.782 26.463 204.555 26.6116 204.29 26.721C204.024 26.8305 203.742 26.8853 203.445 26.8853C203.148 26.8853 202.866 26.8305 202.601 26.721C202.335 26.6116 202.1 26.463 201.897 26.2753C201.709 26.072 201.561 25.8374 201.451 25.5716C201.342 25.3057 201.287 25.0242 201.287 24.727ZM208.228 24.727C208.228 24.4299 208.283 24.1484 208.393 23.8825C208.502 23.6167 208.651 23.3899 208.838 23.2022C209.042 22.9989 209.276 22.8425 209.542 22.7331C209.808 22.6236 210.089 22.5688 210.386 22.5688C210.684 22.5688 210.965 22.6236 211.231 22.7331C211.497 22.8425 211.724 22.9989 211.911 23.2022C212.115 23.3899 212.271 23.6167 212.38 23.8825C212.49 24.1484 212.545 24.4299 212.545 24.727C212.545 25.0242 212.49 25.3057 212.38 25.5716C212.271 25.8374 212.115 26.072 211.911 26.2753C211.724 26.463 211.497 26.6116 211.231 26.721C210.965 26.8305 210.684 26.8853 210.386 26.8853C210.089 26.8853 209.808 26.8305 209.542 26.721C209.276 26.6116 209.042 26.463 208.838 26.2753C208.651 26.072 208.502 25.8374 208.393 25.5716C208.283 25.3057 208.228 25.0242 208.228 24.727Z" fill="white"/>
<path d="M21.8305 4.10612V0H17.8613V4.10612C10.695 5.00515 5.00515 10.695 4.10612 17.8613H0V21.8305H4.10612C5.00515 28.9969 10.693 34.6867 17.8613 35.5858V39.6919H21.8305V35.5858C28.9969 34.6867 34.6867 28.9989 35.5858 21.8305H39.6919V17.8613H35.5858C34.6867 10.695 28.9969 5.00515 21.8305 4.10612ZM19.8459 31.7535C13.2789 31.7535 7.93838 26.413 7.93838 19.8459C7.93838 13.2789 13.2789 7.93838 19.8459 7.93838C26.413 7.93838 31.7535 13.2789 31.7535 19.8459C31.7535 26.413 26.413 31.7535 19.8459 31.7535Z" fill="white"/>
<path d="M21.0335 19.846C21.5256 19.846 21.9245 19.4471 21.9245 18.955C21.9245 18.463 21.5256 18.0641 21.0335 18.0641C20.5415 18.0641 20.1426 18.463 20.1426 18.955C20.1426 19.4471 20.5415 19.846 21.0335 19.846Z" fill="white"/>
<path d="M18.0649 22.8158C18.7209 22.8158 19.2528 22.2839 19.2528 21.6279C19.2528 20.9718 18.7209 20.4399 18.0649 20.4399C17.4088 20.4399 16.877 20.9718 16.877 21.6279C16.877 22.2839 17.4088 22.8158 18.0649 22.8158Z" fill="white"/>
<path d="M22.0724 22.8157C22.3184 22.8157 22.5179 22.6163 22.5179 22.3703C22.5179 22.1242 22.3184 21.9248 22.0724 21.9248C21.8264 21.9248 21.627 22.1242 21.627 22.3703C21.627 22.6163 21.8264 22.8157 22.0724 22.8157Z" fill="white"/>
<path d="M16.8751 17.4702C17.0391 17.4702 17.1721 17.3372 17.1721 17.1732C17.1721 17.0092 17.0391 16.8762 16.8751 16.8762C16.7111 16.8762 16.5781 17.0092 16.5781 17.1732C16.5781 17.3372 16.7111 17.4702 16.8751 17.4702Z" fill="white"/>
<path d="M22.8165 17.1732C22.9805 17.1732 23.1135 17.0402 23.1135 16.8762C23.1135 16.7122 22.9805 16.5792 22.8165 16.5792C22.6525 16.5792 22.5195 16.7122 22.5195 16.8762C22.5195 17.0402 22.6525 17.1732 22.8165 17.1732Z" fill="white"/>
<path d="M27.9988 18.064C27.6324 18.0688 27.2837 18.2455 27.0634 18.5392C26.7287 18.9856 26.1959 19.252 25.6379 19.252C25.0935 19.252 24.5661 19.0922 24.1129 18.7901L23.8396 18.6081L24.169 18.1139L24.4422 18.296C24.7193 18.4807 25.032 18.595 25.3587 18.6375C25.1867 17.8523 24.8458 17.1057 24.3608 16.4603C24.272 16.3422 24.2839 16.1764 24.3885 16.0719L24.964 15.4964C25.2236 15.2368 25.5684 15.0942 25.9348 15.0942C26.1427 15.0942 26.3381 15.0135 26.4854 14.8662L26.6761 14.6755C26.6586 14.2398 26.4807 13.8324 26.1706 13.5223C25.8606 13.2123 25.4531 13.0341 25.0175 13.0169L24.8268 13.2075C24.6792 13.3545 24.5984 13.55 24.5984 13.7578C24.5984 14.1243 24.4559 14.4691 24.1963 14.7284L23.6208 15.3039C23.5162 15.4085 23.3511 15.4203 23.2323 15.3315C22.587 14.8466 21.8404 14.5059 21.0552 14.3337C21.0976 14.6604 21.212 14.9731 21.3967 15.2502L21.5787 15.5234L21.0846 15.8527L20.9025 15.5795C20.6005 15.1266 20.4407 14.5992 20.4407 14.0548C20.4407 13.4971 20.7071 12.9643 21.1535 12.6293C21.4472 12.409 21.6239 12.0603 21.6286 11.6938C21.1256 11.3921 20.5533 11.2335 19.9641 11.2335H19.7295C19.1403 11.2335 18.568 11.3921 18.0649 11.6938C18.0696 12.0603 18.2463 12.409 18.5401 12.6293C18.9864 12.964 19.2528 13.4968 19.2528 14.0548C19.2528 14.5992 19.093 15.1266 18.791 15.5798L18.609 15.853L18.1148 15.5237L18.2968 15.2505C18.4816 14.9734 18.5959 14.6607 18.6384 14.334C17.8531 14.5059 17.1065 14.8469 16.4612 15.3318C16.343 15.4206 16.177 15.4087 16.0728 15.3042L15.4972 14.7287C15.2377 14.4691 15.0951 14.1243 15.0951 13.7578C15.0951 13.55 15.0143 13.3545 14.867 13.2072L14.6764 13.0169C14.2407 13.0344 13.8332 13.2123 13.5232 13.5223C13.2131 13.8324 13.035 14.2398 13.0177 14.6755L13.2084 14.8662C13.3554 15.0135 13.5508 15.0942 13.7587 15.0942C14.1252 15.0942 14.47 15.2368 14.7292 15.4964L15.3048 16.0719C15.4093 16.1764 15.4212 16.3422 15.3324 16.4603C14.8474 17.1057 14.5068 17.8523 14.3345 18.6375C14.6612 18.595 14.9739 18.4807 15.251 18.296L15.5242 18.1139L15.8536 18.6081L15.5804 18.7901C15.1275 19.0922 14.6 19.252 14.0557 19.252C13.4979 19.252 12.9652 18.9856 12.6302 18.5392C12.4098 18.2455 12.0612 18.0688 11.6947 18.064C11.393 18.5671 11.2344 19.1394 11.2344 19.7286V19.9632C11.2344 20.5524 11.393 21.1247 11.6947 21.6278C12.0612 21.623 12.4098 21.4463 12.6302 21.1526C12.9649 20.7063 13.4977 20.4399 14.0557 20.4399C14.6 20.4399 15.1275 20.5996 15.5807 20.9017L15.8539 21.0837L15.5245 21.5779L15.2513 21.3958C14.9742 21.2111 14.6615 21.0968 14.3348 21.0543C14.5068 21.8395 14.8477 22.5861 15.3327 23.2315C15.4215 23.3497 15.4096 23.5154 15.3051 23.6199L14.7295 24.1955C14.47 24.455 14.1252 24.5976 13.7587 24.5976C13.5508 24.5976 13.3554 24.6784 13.2081 24.8257L13.0177 25.0163C13.0353 25.452 13.2131 25.8594 13.5232 26.1695C13.8332 26.4795 14.2407 26.6577 14.6764 26.6749L14.867 26.4843C15.0143 26.3373 15.0951 26.1419 15.0951 25.934C15.0951 25.5675 15.2377 25.2227 15.4972 24.9634L16.0728 24.3879C16.177 24.2834 16.3424 24.2715 16.4612 24.3603C17.1065 24.8453 17.8531 25.1859 18.6384 25.3581C18.5959 25.0315 18.4816 24.7187 18.2968 24.4417L18.1148 24.1684L18.609 23.8391L18.791 24.1123C19.093 24.5652 19.2528 25.0926 19.2528 25.637C19.2528 26.1947 18.9864 26.7275 18.5401 27.0625C18.2463 27.2829 18.0696 27.6315 18.0649 27.998C18.5677 28.2997 19.14 28.4583 19.7295 28.4583H19.9641C20.5533 28.4583 21.1256 28.2997 21.6283 27.998C21.6236 27.6315 21.4469 27.2829 21.1532 27.0625C20.7068 26.7278 20.4404 26.195 20.4404 25.637C20.4404 25.0926 20.6002 24.5652 20.9022 24.112L21.0843 23.8388L21.5784 24.1681L21.3964 24.4414C21.2117 24.7184 21.0973 25.0312 21.0549 25.3578C21.8401 25.1859 22.5867 24.845 23.232 24.36C23.3502 24.2712 23.5159 24.2831 23.6205 24.3876L24.196 24.9632C24.4559 25.2227 24.5984 25.5675 24.5984 25.934C24.5984 26.1419 24.6792 26.3373 24.8265 26.4846L25.0172 26.6752C25.4528 26.6577 25.8603 26.4798 26.1703 26.1698C26.4804 25.8597 26.6586 25.4523 26.6758 25.0166L26.4851 24.8259C26.3381 24.6784 26.1427 24.5976 25.9348 24.5976C25.5684 24.5976 25.2236 24.455 24.9643 24.1955L24.3888 23.6199C24.2842 23.5154 24.2723 23.3497 24.3611 23.2315C24.8461 22.5861 25.1867 21.8395 25.359 21.0543C25.0323 21.0968 24.7196 21.2111 24.4425 21.3958L24.1693 21.5779L23.8399 21.0837L24.1132 20.9017C24.5661 20.5996 25.0935 20.4399 25.6379 20.4399C26.1956 20.4399 26.7284 20.7063 27.0634 21.1526C27.2837 21.4463 27.6324 21.623 27.9988 21.6278C28.3006 21.125 28.4592 20.5527 28.4592 19.9632V19.7286C28.4592 19.1394 28.3006 18.5671 27.9988 18.064ZM15.986 17.1731C15.986 16.6819 16.3858 16.2822 16.877 16.2822C17.3682 16.2822 17.7679 16.6819 17.7679 17.1731C17.7679 17.6643 17.3682 18.064 16.877 18.064C16.3858 18.064 15.986 17.6643 15.986 17.1731ZM18.0649 23.4097C17.0822 23.4097 16.283 22.6105 16.283 21.6278C16.283 20.6451 17.0822 19.8459 18.0649 19.8459C19.0476 19.8459 19.8468 20.6451 19.8468 21.6278C19.8468 22.6105 19.0476 23.4097 18.0649 23.4097ZM19.5498 18.955C19.5498 18.1362 20.2159 17.4701 21.0347 17.4701C21.8534 17.4701 22.5196 18.1362 22.5196 18.955C22.5196 19.7737 21.8534 20.4399 21.0347 20.4399C20.2159 20.4399 19.5498 19.7737 19.5498 18.955ZM22.0741 23.4097C21.5009 23.4097 21.0347 22.9434 21.0347 22.3702C21.0347 21.7971 21.5009 21.3308 22.0741 21.3308C22.6473 21.3308 23.1135 21.7971 23.1135 22.3702C23.1135 22.9434 22.6473 23.4097 22.0741 23.4097ZM22.8166 17.7671C22.3253 17.7671 21.9256 17.3673 21.9256 16.8761C21.9256 16.3849 22.3253 15.9852 22.8166 15.9852C23.3078 15.9852 23.7075 16.3849 23.7075 16.8761C23.7075 17.3673 23.3078 17.7671 22.8166 17.7671Z" fill="white"/>
</svg>
