<svg width="40" height="40" viewBox="0 0 40 40" fill="none" xmlns="http://www.w3.org/2000/svg">
<path d="M21.8305 4.10612V0H17.8613V4.10612C10.695 5.00515 5.00515 10.695 4.10612 17.8613H0V21.8305H4.10612C5.00515 28.9969 10.693 34.6867 17.8613 35.5858V39.6919H21.8305V35.5858C28.9969 34.6867 34.6867 28.9989 35.5858 21.8305H39.6919V17.8613H35.5858C34.6867 10.695 28.9969 5.00515 21.8305 4.10612ZM19.8459 31.7535C13.2789 31.7535 7.93838 26.413 7.93838 19.8459C7.93838 13.2789 13.2789 7.93838 19.8459 7.93838C26.413 7.93838 31.7535 13.2789 31.7535 19.8459C31.7535 26.413 26.413 31.7535 19.8459 31.7535Z" fill="white"/>
<path d="M21.0335 19.846C21.5256 19.846 21.9245 19.4471 21.9245 18.955C21.9245 18.463 21.5256 18.0641 21.0335 18.0641C20.5415 18.0641 20.1426 18.463 20.1426 18.955C20.1426 19.4471 20.5415 19.846 21.0335 19.846Z" fill="white"/>
<path d="M18.0649 22.8158C18.7209 22.8158 19.2528 22.2839 19.2528 21.6279C19.2528 20.9718 18.7209 20.4399 18.0649 20.4399C17.4088 20.4399 16.877 20.9718 16.877 21.6279C16.877 22.2839 17.4088 22.8158 18.0649 22.8158Z" fill="white"/>
<path d="M22.0724 22.8157C22.3184 22.8157 22.5179 22.6163 22.5179 22.3703C22.5179 22.1242 22.3184 21.9248 22.0724 21.9248C21.8264 21.9248 21.627 22.1242 21.627 22.3703C21.627 22.6163 21.8264 22.8157 22.0724 22.8157Z" fill="white"/>
<path d="M16.8751 17.4702C17.0391 17.4702 17.1721 17.3372 17.1721 17.1732C17.1721 17.0092 17.0391 16.8762 16.8751 16.8762C16.7111 16.8762 16.5781 17.0092 16.5781 17.1732C16.5781 17.3372 16.7111 17.4702 16.8751 17.4702Z" fill="white"/>
<path d="M22.8165 17.1732C22.9805 17.1732 23.1135 17.0402 23.1135 16.8762C23.1135 16.7122 22.9805 16.5792 22.8165 16.5792C22.6525 16.5792 22.5195 16.7122 22.5195 16.8762C22.5195 17.0402 22.6525 17.1732 22.8165 17.1732Z" fill="white"/>
<path d="M27.9988 18.064C27.6324 18.0688 27.2837 18.2455 27.0634 18.5392C26.7287 18.9856 26.1959 19.252 25.6379 19.252C25.0935 19.252 24.5661 19.0922 24.1129 18.7901L23.8396 18.6081L24.169 18.1139L24.4422 18.296C24.7193 18.4807 25.032 18.595 25.3587 18.6375C25.1867 17.8523 24.8458 17.1057 24.3608 16.4603C24.272 16.3422 24.2839 16.1764 24.3885 16.0719L24.964 15.4964C25.2236 15.2368 25.5684 15.0942 25.9348 15.0942C26.1427 15.0942 26.3381 15.0135 26.4854 14.8662L26.6761 14.6755C26.6586 14.2398 26.4807 13.8324 26.1706 13.5223C25.8606 13.2123 25.4531 13.0341 25.0175 13.0169L24.8268 13.2075C24.6792 13.3545 24.5984 13.55 24.5984 13.7578C24.5984 14.1243 24.4559 14.4691 24.1963 14.7284L23.6208 15.3039C23.5162 15.4085 23.3511 15.4203 23.2323 15.3315C22.587 14.8466 21.8404 14.5059 21.0552 14.3337C21.0976 14.6604 21.212 14.9731 21.3967 15.2502L21.5787 15.5234L21.0846 15.8527L20.9025 15.5795C20.6005 15.1266 20.4407 14.5992 20.4407 14.0548C20.4407 13.4971 20.7071 12.9643 21.1535 12.6293C21.4472 12.409 21.6239 12.0603 21.6286 11.6938C21.1256 11.3921 20.5533 11.2335 19.9641 11.2335H19.7295C19.1403 11.2335 18.568 11.3921 18.0649 11.6938C18.0696 12.0603 18.2463 12.409 18.5401 12.6293C18.9864 12.964 19.2528 13.4968 19.2528 14.0548C19.2528 14.5992 19.093 15.1266 18.791 15.5798L18.609 15.853L18.1148 15.5237L18.2968 15.2505C18.4816 14.9734 18.5959 14.6607 18.6384 14.334C17.8531 14.5059 17.1065 14.8469 16.4612 15.3318C16.343 15.4206 16.177 15.4087 16.0728 15.3042L15.4972 14.7287C15.2377 14.4691 15.0951 14.1243 15.0951 13.7578C15.0951 13.55 15.0143 13.3545 14.867 13.2072L14.6764 13.0169C14.2407 13.0344 13.8332 13.2123 13.5232 13.5223C13.2131 13.8324 13.035 14.2398 13.0177 14.6755L13.2084 14.8662C13.3554 15.0135 13.5508 15.0942 13.7587 15.0942C14.1252 15.0942 14.47 15.2368 14.7292 15.4964L15.3048 16.0719C15.4093 16.1764 15.4212 16.3422 15.3324 16.4603C14.8474 17.1057 14.5068 17.8523 14.3345 18.6375C14.6612 18.595 14.9739 18.4807 15.251 18.296L15.5242 18.1139L15.8536 18.6081L15.5804 18.7901C15.1275 19.0922 14.6 19.252 14.0557 19.252C13.4979 19.252 12.9652 18.9856 12.6302 18.5392C12.4098 18.2455 12.0612 18.0688 11.6947 18.064C11.393 18.5671 11.2344 19.1394 11.2344 19.7286V19.9632C11.2344 20.5524 11.393 21.1247 11.6947 21.6278C12.0612 21.623 12.4098 21.4463 12.6302 21.1526C12.9649 20.7063 13.4977 20.4399 14.0557 20.4399C14.6 20.4399 15.1275 20.5996 15.5807 20.9017L15.8539 21.0837L15.5245 21.5779L15.2513 21.3958C14.9742 21.2111 14.6615 21.0968 14.3348 21.0543C14.5068 21.8395 14.8477 22.5861 15.3327 23.2315C15.4215 23.3497 15.4096 23.5154 15.3051 23.6199L14.7295 24.1955C14.47 24.455 14.1252 24.5976 13.7587 24.5976C13.5508 24.5976 13.3554 24.6784 13.2081 24.8257L13.0177 25.0163C13.0353 25.452 13.2131 25.8594 13.5232 26.1695C13.8332 26.4795 14.2407 26.6577 14.6764 26.6749L14.867 26.4843C15.0143 26.3373 15.0951 26.1419 15.0951 25.934C15.0951 25.5675 15.2377 25.2227 15.4972 24.9634L16.0728 24.3879C16.177 24.2834 16.3424 24.2715 16.4612 24.3603C17.1065 24.8453 17.8531 25.1859 18.6384 25.3581C18.5959 25.0315 18.4816 24.7187 18.2968 24.4417L18.1148 24.1684L18.609 23.8391L18.791 24.1123C19.093 24.5652 19.2528 25.0926 19.2528 25.637C19.2528 26.1947 18.9864 26.7275 18.5401 27.0625C18.2463 27.2829 18.0696 27.6315 18.0649 27.998C18.5677 28.2997 19.14 28.4583 19.7295 28.4583H19.9641C20.5533 28.4583 21.1256 28.2997 21.6283 27.998C21.6236 27.6315 21.4469 27.2829 21.1532 27.0625C20.7068 26.7278 20.4404 26.195 20.4404 25.637C20.4404 25.0926 20.6002 24.5652 20.9022 24.112L21.0843 23.8388L21.5784 24.1681L21.3964 24.4414C21.2117 24.7184 21.0973 25.0312 21.0549 25.3578C21.8401 25.1859 22.5867 24.845 23.232 24.36C23.3502 24.2712 23.5159 24.2831 23.6205 24.3876L24.196 24.9632C24.4559 25.2227 24.5984 25.5675 24.5984 25.934C24.5984 26.1419 24.6792 26.3373 24.8265 26.4846L25.0172 26.6752C25.4528 26.6577 25.8603 26.4798 26.1703 26.1698C26.4804 25.8597 26.6586 25.4523 26.6758 25.0166L26.4851 24.8259C26.3381 24.6784 26.1427 24.5976 25.9348 24.5976C25.5684 24.5976 25.2236 24.455 24.9643 24.1955L24.3888 23.6199C24.2842 23.5154 24.2723 23.3497 24.3611 23.2315C24.8461 22.5861 25.1867 21.8395 25.359 21.0543C25.0323 21.0968 24.7196 21.2111 24.4425 21.3958L24.1693 21.5779L23.8399 21.0837L24.1132 20.9017C24.5661 20.5996 25.0935 20.4399 25.6379 20.4399C26.1956 20.4399 26.7284 20.7063 27.0634 21.1526C27.2837 21.4463 27.6324 21.623 27.9988 21.6278C28.3006 21.125 28.4592 20.5527 28.4592 19.9632V19.7286C28.4592 19.1394 28.3006 18.5671 27.9988 18.064ZM15.986 17.1731C15.986 16.6819 16.3858 16.2822 16.877 16.2822C17.3682 16.2822 17.7679 16.6819 17.7679 17.1731C17.7679 17.6643 17.3682 18.064 16.877 18.064C16.3858 18.064 15.986 17.6643 15.986 17.1731ZM18.0649 23.4097C17.0822 23.4097 16.283 22.6105 16.283 21.6278C16.283 20.6451 17.0822 19.8459 18.0649 19.8459C19.0476 19.8459 19.8468 20.6451 19.8468 21.6278C19.8468 22.6105 19.0476 23.4097 18.0649 23.4097ZM19.5498 18.955C19.5498 18.1362 20.2159 17.4701 21.0347 17.4701C21.8534 17.4701 22.5196 18.1362 22.5196 18.955C22.5196 19.7737 21.8534 20.4399 21.0347 20.4399C20.2159 20.4399 19.5498 19.7737 19.5498 18.955ZM22.0741 23.4097C21.5009 23.4097 21.0347 22.9434 21.0347 22.3702C21.0347 21.7971 21.5009 21.3308 22.0741 21.3308C22.6473 21.3308 23.1135 21.7971 23.1135 22.3702C23.1135 22.9434 22.6473 23.4097 22.0741 23.4097ZM22.8166 17.7671C22.3253 17.7671 21.9256 17.3673 21.9256 16.8761C21.9256 16.3849 22.3253 15.9852 22.8166 15.9852C23.3078 15.9852 23.7075 16.3849 23.7075 16.8761C23.7075 17.3673 23.3078 17.7671 22.8166 17.7671Z" fill="white"/>
</svg>
